<svg width="21" height="21" viewBox="0 0 21 21" fill="none" xmlns="http://www.w3.org/2000/svg">
<path fill-rule="evenodd" clip-rule="evenodd" d="M8.44027 17.4466L8.41146 17.3883L-6.10352e-05 12L2.99582 9.78641L5.47319 0L8.46908 2.21359L18.465 1.57282L17.3127 5.12621L20.9999 14.534H17.2839L17.2551 14.5631L9.56373 21L8.44027 17.4466Z" fill="black"/>
<path fill-rule="evenodd" clip-rule="evenodd" d="M8.44127 17.3548V17.413L14.2602 14.5004L15.3548 14.5296H17.2561H17.2849L17.1697 13.6558L16.3631 8.03441L17.3137 5.15091H17.2849L17.1985 5.12179L10.9186 4.01499L8.47008 2.20917V2.23829L7.7211 3.63635L5.44538 8.00528L3.11205 9.72373L2.99683 9.81111L7.51946 14.5004L8.44127 17.3548Z" fill="white"/>
</svg>
